<svg xmlns="http://www.w3.org/2000/svg" viewBox="0 0 494.55 182.06"><defs><style>.cls-1{fill:#1d1d1b;}</style></defs><title>Asset 1</title><g id="Layer_2" data-name="Layer 2"><g id="Layer_1-2" data-name="Layer 1"><g id="_Group_" data-name="&lt;Group&gt;"><path id="_Compound_Path_" data-name="&lt;Compound Path&gt;" class="cls-1" d="M384.67,135.33s-6.8,46.73-36.25,46.73-24.83-38.71-24.83-38.71l16.08-96.62S346.49,0,376,0s24.87,38.71,24.87,38.71Zm-36.12-9s-1.2,9.4,6.44,9.4,9.41-11.35,9.41-11.35l11.27-68.73s1.17-9.4-6.31-9.4-9.21,11.35-9.21,11.35Z"/><path id="_Path_" data-name="&lt;Path&gt;" class="cls-1" d="M13.16,65.95C8.95,91.17,31,96,36.95,101.53a18.2,18.2,0,0,1,5.79,12.74l-1.67,10.12s-1.77,11.35-9.41,11.35-6.44-9.4-6.44-9.4l.77-4.48H3.72L.26,143.35s-4.62,38.71,24.83,38.71,36.25-46.73,36.25-46.73l3.09-17.77C68.75,91,46.53,87.47,40.55,82a18.16,18.16,0,0,1-5.81-12.74l2.07-11.63S38.54,46.25,46,46.25s6.31,9.4,6.31,9.4L52,58.83H74.23l3.29-20.12S82.15,0,52.65,0,16.34,46.73,16.34,46.73Z"/><path id="_Path_2" data-name="&lt;Path&gt;" class="cls-1" d="M142,143.35s-5.24,38.71,24.83,38.71S203,135.33,203,135.33L225.47,1.56H203.25L182.77,124.39s-2,11.35-9.41,11.35-6.44-9.4-6.44-9.4l21-124.79h-22Z"/><path id="_Compound_Path_2" data-name="&lt;Compound Path&gt;" class="cls-1" d="M266,1.59c31.33,0,24.38,42.11,24.38,42.11l-15.2,89.71s-6.74,46.73-36.25,46.73l-31.43,0L237.75,1.56ZM252.24,46.33l-15,89.41h8c8.73,0,9.83-13.89,9.83-13.89s10.31-61.83,10.53-63,2.11-12.57-6-12.57Z"/><g id="_Group_2" data-name="&lt;Group&gt;"><polygon id="_Path_3" data-name="&lt;Path&gt;" class="cls-1" points="281.16 180.09 303.34 179.63 333.23 1.56 311.01 1.56 281.16 180.09"/></g><polygon id="_Path_4" data-name="&lt;Path&gt;" class="cls-1" points="94.91 1.56 85.08 58.83 104.03 58.83 83.7 180.09 86.97 180.02 86.95 180.08 102.44 180.09 102.5 179.7 105.89 179.63 126.24 58.83 144.98 58.83 154.51 1.56 94.91 1.56"/><path id="_Compound_Path_3" data-name="&lt;Compound Path&gt;" class="cls-1" d="M494.55,1.56,464.67,179.63l-18.51.38,9.63-58.15H414.6l6.64-39.25,54.7-81.06ZM469.71,38.71l-29.35,43.9h22Z"/></g></g></g></svg>